# xmcd
#
# Track frame offsets:
#   150
#   10752
#   27198
#   51243
#   66288
#   78784
#   101229
#   117852
#   139966
#   157567
#   175329
#   195499
#   216369
#   234949
#   256202
#   276980
#   312759
#
# Disc length: 4337 seconds
#
# Revision: 0
# Processed by: cddbd v1.5.2PL0 Copyright (c) Steve Scherf et al.
# Submitted via: GXTranscoder 2.0.1939
#
DISCID=e110ef11
DTITLE=Stevie ray Vaughan - Texas flood
DYEAR=1900
DGENRE=Blues
TTITLE0=love strunckbaby
TTITLE1=pride and joy
TTITLE2=texasflood
TTITLE3=testy fy
TTITLE4=marry had a litten lamb
TTITLE5=lirty pool
TTITLE6=i m cryin
TTITLE7=lenny
TTITLE8=change it
TTITLE9=coll shot
TTITLE10=couldnt stand the weather
TTITLE11=voodo chile
TTITLE12=louckin out the window
TTITLE13=crossfire
TTITLE14=superstition
TTITLE15=come on
TTITLE16=willi th wimp
EXTD=
EXTT0=
EXTT1=
EXTT2=
EXTT3=
EXTT4=
EXTT5=
EXTT6=
EXTT7=
EXTT8=
EXTT9=
EXTT10=
EXTT11=
EXTT12=
EXTT13=
EXTT14=
EXTT15=
EXTT16=
PLAYORDER=
